<svg xmlns="http://www.w3.org/2000/svg" width="256" height="256" viewBox="0 0 256 256" role="img">
  <style>
    :root { color: #191a20; }
    @media (prefers-color-scheme: dark) {
      :root { color: #f8f8fa; }
    }
  </style>
	<path d="M 111 26.323 C 104.675 29.870, 87.160 39.911, 72.077 48.636 C 51.744 60.398, 43.858 65.493, 41.577 68.342 L 38.500 72.184 38.216 120.842 C 37.905 174.125, 37.968 174.795, 43.768 180.211 C 48.068 184.227, 119.643 225.132, 124.136 226.142 C 126.557 226.686, 129.491 226.682, 131.482 226.133 C 134.559 225.283, 165.034 208.452, 197.200 189.836 C 204.735 185.475, 212.030 180.564, 213.412 178.923 C 214.793 177.281, 216.388 174.264, 216.956 172.219 C 217.600 169.902, 217.983 150.971, 217.972 122 C 217.957 78.740, 217.826 75.213, 216.087 71.384 C 215.059 69.120, 212.706 66.125, 210.859 64.728 C 209.011 63.330, 191.078 52.822, 171.007 41.376 C 136.123 21.481, 134.249 20.549, 128.507 20.219 C 122.712 19.887, 122.094 20.103, 111 26.323 M 117 24.694 C 107.792 29.482, 53.063 61.259, 47.385 65.115 C 39.813 70.258, 40 68.796, 40 122.941 C 40 168.498, 40.103 171.282, 41.927 174.857 C 42.987 176.934, 44.449 179.118, 45.177 179.710 C 46.626 180.889, 72.811 196.189, 102.386 213.138 C 112.773 219.090, 122.837 224.254, 124.750 224.613 C 126.663 224.972, 129.779 224.790, 131.673 224.208 C 134.911 223.215, 189.212 192.823, 204.500 183.448 C 216.232 176.254, 215.454 180.374, 215.786 123.701 C 216.072 74.935, 216.071 74.898, 213.860 70.964 C 212.643 68.799, 210.039 65.945, 208.074 64.623 C 204.952 62.522, 190.758 54.296, 145.186 28.178 C 130.344 19.672, 127.368 19.304, 117 24.694 M 123.680 37.186 C 122.129 37.751, 105.751 46.828, 87.284 57.357 C 66.189 69.384, 52.927 77.549, 51.604 79.323 C 49.544 82.088, 49.500 83.015, 49.500 124.008 L 49.500 165.869 52.407 168.903 C 54.006 170.572, 60.756 175.064, 67.407 178.884 C 74.058 182.705, 88.892 191.238, 100.372 197.848 C 112.305 204.719, 122.894 210.144, 125.098 210.517 C 128.044 211.014, 130.198 210.597, 134.227 208.749 C 141.974 205.194, 201.160 171.124, 203.500 168.871 C 205.429 167.014, 205.509 165.456, 205.764 124.723 C 206.013 84.811, 205.925 82.336, 204.141 79.500 C 202.887 77.507, 198.097 74.179, 189.877 69.588 C 183.070 65.786, 169.625 58.153, 160 52.624 C 138.372 40.201, 130.236 35.977, 128.130 36.079 C 127.233 36.122, 125.231 36.620, 123.680 37.186 M 124 38.710 C 123.175 39.014, 115.750 43.085, 107.500 47.758 C 69.108 69.499, 56.185 77.174, 53.934 79.569 L 51.500 82.159 51.206 122.267 C 50.892 165.229, 51.014 166.471, 55.882 169.891 C 59.251 172.258, 114.094 204.013, 119.926 206.974 C 127.607 210.872, 128.952 210.342, 166.834 188.483 C 187.975 176.285, 201.809 167.696, 202.834 166.132 C 204.293 163.908, 204.541 159.171, 204.827 128.046 C 205.007 108.496, 204.858 90.104, 204.496 87.175 C 204.028 83.390, 203.065 81.021, 201.169 78.988 C 199.701 77.414, 187.700 70.065, 174.500 62.657 C 161.300 55.249, 146.248 46.671, 141.051 43.594 C 131.982 38.224, 128.234 37.151, 124 38.710 M 124.791 43.957 C 121.091 45.115, 115.855 48.956, 116.517 50.027 C 116.814 50.508, 118.699 49.787, 120.705 48.425 C 122.712 47.063, 125.375 45.693, 126.624 45.380 C 133.360 43.689, 142.441 51.830, 149.051 65.488 C 151.223 69.975, 153 74.126, 153 74.712 C 153 75.298, 151.313 76.074, 149.250 76.436 C 147.188 76.798, 141.138 78.429, 135.806 80.059 L 126.112 83.024 117.444 80.512 C 112.677 79.130, 108.039 77.993, 107.138 77.985 C 106.237 77.976, 104.853 77.560, 104.063 77.060 C 102.850 76.292, 103.057 75.050, 105.390 69.104 C 106.910 65.229, 107.872 61.602, 107.527 61.044 C 107.130 60.401, 107.972 60.244, 109.828 60.616 C 114.296 61.509, 117 59.580, 117 55.500 C 117 53.133, 116.401 51.750, 115.066 51.035 C 110.196 48.429, 105.876 51.355, 106.123 57.092 C 106.207 59.054, 104.833 63.790, 102.885 68.253 L 99.500 76.006 92.731 75.372 C 86.942 74.830, 86.046 74.956, 86.541 76.247 C 86.911 77.210, 88.918 77.930, 92.082 78.234 C 94.811 78.496, 97.273 78.940, 97.554 79.220 C 97.834 79.501, 96.927 84.178, 95.538 89.615 C 93.087 99.205, 92.855 99.634, 87.756 103.976 C 84.865 106.438, 79.898 110.993, 76.718 114.098 L 70.936 119.744 67.350 115.622 C 62.608 110.170, 56.999 98.465, 57.004 94.028 C 57.009 89.454, 60.012 84.605, 63.910 82.879 C 67.002 81.511, 68.253 78, 65.648 78 C 63.313 78, 57.687 82.371, 55.747 85.693 C 51.570 92.846, 54.525 105.303, 63.080 116.606 L 67.955 123.046 63.584 129.431 C 55.381 141.413, 52.739 153.780, 56.919 160.634 C 59.447 164.781, 64.564 168.548, 69.500 169.896 C 73.780 171.065, 87.798 171.398, 90.418 170.393 C 91.288 170.059, 92 169.239, 92 168.570 C 92 167.695, 89.269 167.370, 82.250 167.411 C 74.292 167.457, 71.632 167.069, 67.777 165.301 C 58.003 160.821, 56.432 152.363, 62.953 139.335 C 65.126 134.991, 67.958 130.449, 69.244 129.240 L 71.583 127.043 76.542 131.337 C 79.269 133.699, 83.634 137.084, 86.242 138.858 C 88.849 140.633, 91.200 143.078, 91.465 144.292 C 91.730 145.507, 92.407 149.161, 92.970 152.413 C 93.532 155.665, 94.107 158.441, 94.248 158.581 C 94.388 158.722, 95.254 158.287, 96.172 157.616 C 97.595 156.576, 97.691 155.690, 96.825 151.627 C 96.266 149.004, 96.034 146.633, 96.309 146.357 C 96.585 146.081, 98.766 147.092, 101.156 148.602 C 103.545 150.113, 108.650 152.816, 112.500 154.608 L 119.500 157.867 115.782 159.434 C 113.737 160.295, 111.600 161, 111.032 161 C 110.464 161, 110 161.900, 110 163 C 110 164.100, 110.459 165, 111.020 165 C 111.581 165, 114.812 163.874, 118.200 162.497 L 124.360 159.994 131.930 162.864 C 136.094 164.442, 142.650 166.517, 146.500 167.473 C 150.350 168.430, 154.091 169.386, 154.813 169.599 C 155.772 169.881, 155.297 171.536, 153.052 175.743 C 148.782 183.740, 142.782 190.443, 137.682 192.912 C 132.671 195.338, 126.088 195.614, 122.125 193.565 C 118.232 191.552, 112.531 184.981, 109.518 179.036 C 108.115 176.266, 106.636 174.007, 106.233 174.015 C 105.830 174.024, 104.825 174.461, 104 174.987 C 102.701 175.815, 102.813 176.536, 104.838 180.375 C 107.684 185.772, 115.232 193.530, 120.047 196.008 C 125.819 198.979, 130.297 199.394, 136.026 197.491 C 143.078 195.149, 151.651 186.651, 155.841 177.850 L 159.006 171.201 171.753 170.736 C 178.764 170.480, 186.219 169.730, 188.321 169.069 C 198.124 165.985, 203.344 156.492, 201.069 145.886 C 199.667 139.348, 194.044 128.556, 192.727 129.873 C 192.124 130.476, 193.099 133.474, 195.387 138.047 C 201.660 150.587, 200.010 160.324, 190.789 165.177 C 187.144 167.096, 184.587 167.492, 173.750 167.818 C 159.488 168.246, 159.864 168.471, 162.467 161.093 C 163.274 158.806, 164.504 153.314, 165.200 148.889 L 166.466 140.843 172.683 136.406 C 179.450 131.578, 180.434 130.511, 179.506 129.009 C 179.155 128.442, 176.679 129.510, 173.710 131.509 C 170.859 133.429, 168.249 135, 167.910 135 C 167.572 135, 167.021 129.713, 166.688 123.250 C 166.355 116.787, 165.786 110.487, 165.424 109.250 C 164.350 105.573, 166.491 106.592, 173.381 113.038 C 177.432 116.827, 180.093 118.659, 180.527 117.956 C 181.379 116.578, 177.331 112.209, 169.779 106.359 C 165.199 102.811, 163.842 101.087, 162.979 97.714 C 162.385 95.396, 160.946 90.199, 159.779 86.165 C 157.976 79.928, 157.871 78.695, 159.079 77.930 C 161.007 76.710, 175.482 76.764, 182.083 78.016 C 193.816 80.241, 199.015 85.436, 198.978 94.898 C 198.954 100.938, 196.656 107.140, 192.349 112.787 C 190.946 114.627, 190.090 116.423, 190.447 116.780 C 193.006 119.339, 200.780 105.532, 201.678 96.836 C 202.153 92.233, 201.848 90.318, 200.054 86.611 C 198.196 82.774, 196.865 81.575, 191.673 79.067 C 184.359 75.533, 172.474 73.660, 163 74.549 L 156.500 75.159 152.713 66.830 C 150.629 62.248, 147.443 56.475, 145.632 54 C 139.718 45.920, 131.372 41.898, 124.791 43.957 M 109.750 52.080 C 106.656 53.882, 108.108 60, 111.629 60 C 113.273 60, 116 57.193, 116 55.500 C 116 54.079, 113.348 50.978, 112.179 51.030 C 111.805 51.047, 110.713 51.519, 109.750 52.080 M 73.020 72.284 C 65.396 76.142, 68.203 88, 76.740 88 C 81.484 88, 83.658 86.566, 84.977 82.569 C 85.907 79.753, 85.821 78.555, 84.509 76.018 C 83.036 73.169, 79.610 70.978, 76.685 71.015 C 76.033 71.023, 74.384 71.594, 73.020 72.284 M 72 75 C 70.900 76.100, 70 78.145, 70 79.545 C 70 82.623, 74.110 87, 77 87 C 79.890 87, 84 82.623, 84 79.545 C 84 76.110, 80.674 73, 77 73 C 75.333 73, 73.111 73.889, 72 75 M 144.500 80.527 C 129.028 84.447, 128.981 83.657, 145.163 91.732 C 153.028 95.658, 159.626 98.707, 159.825 98.509 C 160.310 98.023, 155.028 79.667, 154.174 78.874 C 153.803 78.529, 149.450 79.273, 144.500 80.527 M 99.607 87.161 C 98.572 91.198, 97.494 95.114, 97.212 95.865 C 96.840 96.852, 97.261 97.052, 98.730 96.586 C 102.006 95.546, 102.142 98.388, 98.921 100.553 C 95.268 103.008, 94.547 107.028, 94.520 125.096 C 94.506 134.875, 94.869 139.137, 95.813 140.274 C 97.640 142.476, 123.031 155, 125.667 155 C 128.198 155, 139.577 150.236, 153.155 143.492 C 163.908 138.151, 164.029 137.968, 163.969 127.125 C 163.938 121.429, 162.428 107.923, 161.493 104.977 C 160.811 102.828, 147.087 94.756, 135.776 89.850 L 126.635 85.885 121.567 88.031 C 118.780 89.211, 115.938 90.410, 115.250 90.695 C 114.563 90.981, 114 90.545, 114 89.728 C 114 88.911, 115.350 87.683, 117 87 C 118.650 86.317, 120 85.394, 120 84.950 C 120 84.038, 111.552 81.423, 105.494 80.460 L 101.489 79.823 99.607 87.161 M 103.524 88.358 C 102.367 89.205, 101.667 90.955, 101.667 93 C 101.667 96.641, 104.007 99, 107.620 99 C 110.665 99, 113 96.433, 113 93.084 C 113 88.041, 107.624 85.361, 103.524 88.358 M 104.200 90.200 C 102.345 92.055, 102.775 94.729, 105.204 96.430 C 107.081 97.745, 107.710 97.773, 109.454 96.617 C 111.951 94.962, 112.577 92.400, 110.960 90.452 C 109.499 88.691, 105.845 88.555, 104.200 90.200 M 120.223 104.119 C 112.120 108.129, 108.238 119.759, 112.349 127.707 C 114.278 131.438, 119.286 135.783, 122.623 136.620 C 127.189 137.766, 135.531 136.470, 138.864 134.097 C 149.549 126.489, 147.710 109.405, 135.616 103.913 C 130.209 101.458, 125.471 101.521, 120.223 104.119 M 119.898 106.251 C 115.147 109.399, 111.619 116.785, 112.467 121.806 C 114.024 131.023, 121.764 136.862, 130.655 135.529 C 135.730 134.768, 141.079 130.637, 143.003 125.993 C 144.712 121.868, 143.790 113.919, 141.179 110.251 C 136.700 103.962, 126.303 102.007, 119.898 106.251 M 82.607 114.892 C 78.292 119.233, 74.928 123.259, 75.131 123.839 C 75.518 124.944, 89.133 136.991, 90 136.996 C 90.275 136.997, 90.529 131.936, 90.565 125.749 C 90.601 119.562, 90.959 112.813, 91.360 110.750 C 91.762 108.688, 91.722 107, 91.272 107 C 90.822 107, 86.922 110.551, 82.607 114.892 M 181.359 119.550 C 179.367 121.542, 178.956 122.692, 179.482 124.800 C 180.945 130.661, 186.045 132.758, 190.777 129.443 C 193.902 127.254, 193.902 120.746, 190.777 118.557 C 187.550 116.296, 184.266 116.643, 181.359 119.550 M 182.571 120.571 C 180.662 122.481, 180.559 125.015, 182.294 127.388 C 183.196 128.621, 184.612 129.058, 186.967 128.829 C 189.646 128.568, 190.539 127.918, 191.276 125.692 C 192.002 123.497, 191.821 122.460, 190.448 120.942 C 188.325 118.597, 184.716 118.427, 182.571 120.571 M 154.500 147.103 C 150.650 149.225, 144.012 152.408, 139.750 154.177 C 135.488 155.946, 132 157.694, 132 158.061 C 132 159.385, 151.652 165.978, 155.640 165.992 C 157.471 165.999, 158.073 164.880, 159.801 158.250 C 162.427 148.176, 163.285 142.970, 162.295 143.123 C 161.858 143.191, 158.350 144.982, 154.500 147.103 M 95.174 160.314 C 90.476 165.316, 94.173 174, 101 174 C 105.111 174, 109 170.111, 109 166 C 109 159.062, 99.876 155.310, 95.174 160.314 M 98 160.288 C 96.228 161.179, 95.407 162.512, 95.180 164.866 C 94.785 168.961, 97.264 172, 101 172 C 106.857 172, 109.080 164.781, 104.365 161.073 C 101.286 158.651, 101.259 158.648, 98 160.288" stroke="none" fill="currentColor" fill-opacity="0.5" fill-rule="evenodd"/>
</svg>